<?xml version="1.0" encoding="UTF-8" ?>
<svg width="150px" height="150px" viewBox="0 0 150 150" version="1.1" xmlns="http://www.w3.org/2000/svg">
	<desc>Author: Michael Vodák</desc>
	<circle cx="75" cy="75" r="63.5px" stroke="none" stroke-width="0" fill="#000000" />
	<path d="M 6 75 A 69 69 0 0 0 144 75 A 69 69 0 0 0 6 75 Z M 11.5 75 A 63.5 63.5 0 0 0 138.5 75 A 63.5 63.5 0 0 0 11.5 75 Z" stroke="#000000" stroke-width="1" fill="#ffffff" fill-rule="evenodd" />
	<path d="M 16 75 a 59 59 0 0 1 118 0 l -18 0 a 41 41 0 0 0 -82 0 Z" stroke="none" stroke-width="0" fill="#ffffff" />
	<path d="M 11.5 75 a 62 62 0 0 1 127 0 l -4.5 0 a 59 59 0 0 0 -118 0 Z" stroke="#000000" stroke-width="1" fill="#ffffff" />
	<path d="M 18.429460695739074 68.0161555841306 A 57 57 0 0 1 19.058546676252213 64.06593396640812 L 32.798552755769215 66.75149404483419 A 43 43 0 0 0 32.32397912134702 69.73148579153712 Z" stroke="#000000" stroke-width="0.25" fill="none" />
	<path d="M 19.47664482700528 62.10980875496876 A 57 57 0 0 1 20.517377587370582 58.24757166728206 L 33.8990743202971 62.36220318759875 A 43 43 0 0 0 33.113960132653105 65.27582063971327 Z" stroke="#000000" stroke-width="0.25" fill="none" />
	<path d="M 21.138730506269688 56.3462162411012 A 57 57 0 0 1 22.579584298747185 52.6147365950756 L 35.45477412010753 58.11287146646054 A 43 43 0 0 0 34.36781424157187 60.927847339778104 Z" stroke="#000000" stroke-width="0.25" fill="none" />
	<path d="M 23.397310721673946 50.78920779394996 A 57 57 0 0 1 25.222328599413558 47.22981040872715 L 37.44842332938216 54.05055872939066 A 43 43 0 0 0 36.0716554567014 56.73571816034821 Z" stroke="#000000" stroke-width="0.25" fill="none" />
	<path d="M 27.42529667938264 46.224878732571085 A 55.6 55.6 0 0 1 29.361144352778012 43.361725655054656 L 34.61284178537519 50.572199211822934 Z" stroke="#000000" stroke-width="0.25" fill="none" fill-rule="evenodd" />
	<path d="M 29.453785284042837 40.72840352350174 A 57 57 0 0 1 32.316716779477765 37.222528756986854 L 45.84109832619794 43.39686007407582 A 43 43 0 0 0 38.206614338371466 52.745859451448865 Z M 31.92094259973571 40.806509193930864 A 55 55 0 0 1 32.88634973191726 39.62429560987351 L 43.22657658463016 43.84394818871256 A 44.5 44.5 0 0 0 38.12212508114152 50.09473265614223 Z" stroke="#000000" stroke-width="0.25" fill="none" fill-rule="evenodd" />
	<path d="M 37.29686202178152 34.13640511903756 A 55.6 55.6 0 0 1 34.87839063002703 36.60544296547635 L 42.99301955805913 40.31004175572973 Z" stroke="#000000" stroke-width="0.25" fill="none" fill-rule="evenodd" />
	<path d="M 37.84121671858023 31.777033592724358 A 57 57 0 0 1 40.96403554208177 29.277433105529532 L 49.323746110693264 40.5075372550486 A 43 43 0 0 0 46.96793541927982 42.39320078047627 Z" stroke="#000000" stroke-width="0.25" fill="none" />
	<path d="M 42.58929424305074 28.111343031214304 A 57 57 0 0 1 45.95750493681821 25.953761810868087 L 53.09074933830145 38.00020627837417 A 43 43 0 0 0 50.54981846405582 39.627855269161664 Z" stroke="#000000" stroke-width="0.25" fill="none" />
	<path d="M 47.696308886497 24.964927784818606 A 57 57 0 0 1 51.272609706730364 23.173260281290567 L 57.100389778761496 35.902634949043765 A 43 43 0 0 0 54.40247863367318 37.25424376749474 Z" stroke="#000000" stroke-width="0.25" fill="none" />
	<path d="M 98.72739029326962 23.17326028129056 A 57 57 0 0 1 102.30369111350298 24.96492778481859 L 95.59752136632681 37.25424376749473 A 43 43 0 0 0 92.89961022123849 35.90263494904376 Z" stroke="#000000" stroke-width="0.25" fill="none" />
	<path d="M 104.04249506318177 25.953761810868087 A 57 57 0 0 1 107.41070575694925 28.11134303121429 L 99.45018153594417 39.62785526916166 A 43 43 0 0 0 96.90925066169853 38.000206278374165 Z" stroke="#000000" stroke-width="0.25" fill="none" />
	<path d="M 109.03596445791821 29.277433105529518 A 57 57 0 0 1 112.15878328141976 31.777033592724343 L 103.03206458072017 42.39320078047626 A 43 43 0 0 0 100.67625388930672 40.50753725504858 Z" stroke="#000000" stroke-width="0.25" fill="none" />
	<path d="M 112.7031379782185 34.13640511903758 A 55.6 55.6 0 0 1 115.12160936997298 36.60544296547636 L 107.00698044194088 40.31004175572974 Z" stroke="#000000" stroke-width="0.25" fill="none" fill-rule="evenodd" />
	<path d="M 117.68328322052224 37.22252875698686 A 57 57 0 0 1 120.54621471595716 40.72840352350175 L 111.79338566162852 52.74585945144885 A 43 43 0 0 0 104.15890167380208 43.39686007407583 Z M 117.11365026808275 39.62429560987351 A 55 55 0 0 1 118.0790574002643 40.80650919393087 L 111.87787491885848 50.09473265614223 A 44.5 44.5 0 0 0 106.77342341536985 43.84394818871256 Z" stroke="#000000" stroke-width="0.25" fill="none" fill-rule="evenodd" />
	<path d="M 122.57470332061734 46.22487873257107 A 55.6 55.6 0 0 1 120.63885564722199 43.361725655054656 L 115.3871582146248 50.57219921182292 Z" stroke="#000000" stroke-width="0.25" fill="none" fill-rule="evenodd" />
	<path d="M 124.77767140058643 47.22981040872713 A 57 57 0 0 1 126.60268927832604 50.78920779394994 L 113.92834454329859 56.7357181603482 A 43 43 0 0 0 112.55157667061783 54.050558729390644 Z" stroke="#000000" stroke-width="0.25" fill="none" />
	<path d="M 127.42041570125281 52.614736595075584 A 57 57 0 0 1 128.8612694937303 56.34621624110119 L 115.63218575842813 60.92784733977809 A 43 43 0 0 0 114.54522587989247 58.112871466460525 Z" stroke="#000000" stroke-width="0.25" fill="none" />
	<path d="M 129.4826224126294 58.247571667282045 A 57 57 0 0 1 130.5233551729947 62.10980875496874 L 116.88603986734688 65.27582063971326 A 43 43 0 0 0 116.1009256797029 62.36220318759874 Z" stroke="#000000" stroke-width="0.25" fill="none" />
	<path d="M 130.9414533237478 64.0659339664081 A 57 57 0 0 1 131.57053930426093 68.01615558413057 L 117.67602087865296 69.7314857915371 A 43 43 0 0 0 117.20144724423079 66.75149404483417 Z" stroke="#000000" stroke-width="0.25" fill="none" />
	<path d="M 46.2 75 L 44.41018613607189 71.01914611890787 Q 43.21697689345315 68.36524353151311, 40.322025212290676 68.07164175395395 A 131.25 131.25 0 0 0 0 75 Z" stroke="#000000" stroke-width="1" fill="#ffffff" />
	<path d="M 103.8 75 L 105.5898138639281 71.01914611890787 Q 106.78302310654683 68.36524353151311, 109.6779747877093 68.07164175395395 A 131.25 131.25 0 0 1 150 75 Z" stroke="#000000" stroke-width="1" fill="#ffffff" />
	<path d="M37.471083194230935 112.38536783193001 L 57.07612323491651 112.38536783193001 L 54.82046393382014 108.28699362838223 L 35.025959590453496 108.28699362838223 Z" stroke="none" stroke-width="0" fill="#ffffff" />
	<path d="M32.1523969292976 108.28699362838223 L 59.32046393382014 108.28699362838223 L 57.06480463272378 104.18861942483445 L 29.424940880386863 104.18861942483445 Z" stroke="none" stroke-width="0" fill="#ffffff" />
	<path d="M32.58083598667604 104.18861942483445 L 52.56480463272378 104.18861942483445 L 50.30914533162741 100.09024522128668 L 30.1357123828986 100.09024522128668 Z" stroke="none" stroke-width="0" fill="#ffffff" />
	<path d="M26.697484831476124 100.09024522128668 L 54.80914533162741 100.09024522128668 L 52.55348603053105 95.9918710177389 L 23.970028782565386 95.9918710177389 Z" stroke="none" stroke-width="0" fill="#ffffff" />
	<path d="M27.690588779121157 95.9918710177389 L 48.05348603053105 95.9918710177389 L 45.79782672943468 91.89349681419112 L 25.24546517534371 91.89349681419112 Z" stroke="none" stroke-width="0" fill="#ffffff" />
	<path d="M21.242572733654647 91.89349681419112 L 50.29782672943468 91.89349681419112 L 48.04216742833832 87.79512261064334 L 18.51511668474391 87.79512261064334 Z" stroke="none" stroke-width="0" fill="#ffffff" />
	<path d="M22.800341571566257 87.79512261064334 L 43.54216742833832 87.79512261064334 L 41.28650812724195 83.69674840709557 L 20.355217967788817 83.69674840709557 Z" stroke="none" stroke-width="0" fill="#ffffff" />
	<path d="M15.78766063583317 83.69674840709557 L 45.78650812724195 83.69674840709557 L 43.530848826145586 79.59837420354779 L 13.060204586922431 79.59837420354779 Z" stroke="none" stroke-width="0" fill="#ffffff" />
	<path d="M17.91009436401137 79.59837420354779 L 39.030848826145586 79.59837420354779 L 36.77518952504922 75.50000000000001 L 15.464970760233924 75.50000000000001 Z" stroke="none" stroke-width="0" fill="#ffffff" />
	<path d="M112.52891680576906 112.38536783193001 L 92.92387676508349 112.38536783193001 L 95.17953606617986 108.28699362838223 L 114.9740404095465 108.28699362838223 Z" stroke="none" stroke-width="0" fill="#ffffff" />
	<path d="M117.8476030707024 108.28699362838223 L 90.67953606617986 108.28699362838223 L 92.93519536727623 104.18861942483445 L 120.57505911961314 104.18861942483445 Z" stroke="none" stroke-width="0" fill="#ffffff" />
	<path d="M117.41916401332395 104.18861942483445 L 97.43519536727623 104.18861942483445 L 99.69085466837261 100.09024522128668 L 119.86428761710141 100.09024522128668 Z" stroke="none" stroke-width="0" fill="#ffffff" />
	<path d="M123.30251516852388 100.09024522128668 L 95.19085466837261 100.09024522128668 L 97.44651396946898 95.9918710177389 L 126.02997121743462 95.9918710177389 Z" stroke="none" stroke-width="0" fill="#ffffff" />
	<path d="M122.30941122087884 95.9918710177389 L 101.94651396946898 95.9918710177389 L 104.20217327056535 91.89349681419112 L 124.7545348246563 91.89349681419112 Z" stroke="none" stroke-width="0" fill="#ffffff" />
	<path d="M128.75742726634536 91.89349681419112 L 99.70217327056535 91.89349681419112 L 101.95783257166172 87.79512261064334 L 131.4848833152561 87.79512261064334 Z" stroke="none" stroke-width="0" fill="#ffffff" />
	<path d="M127.19965842843373 87.79512261064334 L 106.45783257166172 87.79512261064334 L 108.7134918727581 83.69674840709557 L 129.6447820322112 83.69674840709557 Z" stroke="none" stroke-width="0" fill="#ffffff" />
	<path d="M134.21233936416684 83.69674840709557 L 104.2134918727581 83.69674840709557 L 106.46915117385447 79.59837420354779 L 136.93979541307758 79.59837420354779 Z" stroke="none" stroke-width="0" fill="#ffffff" />
	<path d="M132.08990563598863 79.59837420354779 L 110.96915117385447 79.59837420354779 L 113.22481047495084 75.50000000000001 L 134.5350292397661 75.50000000000001 Z" stroke="none" stroke-width="0" fill="#ffffff" />
	<path d="M68.39912280701749 114.73170978991251 L 81.60087719298251 114.73170978991251 L 104.4653306523154 64.10395887106544 L 45.5346693476846 64.10395887106544 Z" stroke="none" stroke-width="0" fill="#ffffff" />
	<path d="M 34.87985297820834 112.38536783193001 L 59.91228070175428 150 L 90.08771929824571 150 L 115.12014702179166 112.38536783193001 L 88.42387676508349 112.38536783193001 L 83.27984595635436 121.73170978991251 L 66.72015404364563 121.73170978991251 L 61.57612323491651 112.38536783193001 Z" stroke="#000000" stroke-width="1px" fill="#ffffff" />
	<polyline points="32,75 62.67356549453113,130.73170978991251 87.32643450546887,130.73170978991251 118,75" stroke="#000000" stroke-width="1px" fill="none" />
	<line x1="66.72015404364563px" y1="121.73170978991251px" x2="62.67356549453113px" y2="130.73170978991251px" stroke="#000000" stroke-width="1px" />
	<line x1="83.27984595635436px" y1="121.73170978991251px" x2="87.32643450546887px" y2="130.73170978991251px" stroke="#000000" stroke-width="1px" />
	<line x1="34.87985297820834px" y1="112.38536783193001px" x2="52.57612323491651px" y2="112.38536783193001px" stroke="#000000" stroke-width="0.5px" />
	<line x1="32.1523969292976px" y1="108.28699362838223px" x2="50.32046393382014px" y2="108.28699362838223px" stroke="#000000" stroke-width="0.5px" />
	<line x1="50.32046393382014px" y1="108.28699362838223px" x2="59.32046393382014px" y2="108.28699362838223px" stroke="#000000" stroke-width="1.25px" />
	<line x1="29.424940880386863px" y1="104.18861942483445px" x2="48.06480463272378px" y2="104.18861942483445px" stroke="#000000" stroke-width="0.5px" />
	<line x1="26.697484831476124px" y1="100.09024522128668px" x2="45.80914533162741px" y2="100.09024522128668px" stroke="#000000" stroke-width="0.5px" />
	<line x1="45.80914533162741px" y1="100.09024522128668px" x2="54.80914533162741px" y2="100.09024522128668px" stroke="#000000" stroke-width="1.25px" />
	<line x1="23.970028782565386px" y1="95.9918710177389px" x2="43.55348603053105px" y2="95.9918710177389px" stroke="#000000" stroke-width="0.5px" />
	<line x1="21.242572733654647px" y1="91.89349681419112px" x2="41.29782672943468px" y2="91.89349681419112px" stroke="#000000" stroke-width="0.5px" />
	<line x1="41.29782672943468px" y1="91.89349681419112px" x2="50.29782672943468px" y2="91.89349681419112px" stroke="#000000" stroke-width="1.25px" />
	<line x1="18.51511668474391px" y1="87.79512261064334px" x2="39.04216742833832px" y2="87.79512261064334px" stroke="#000000" stroke-width="0.5px" />
	<line x1="15.78766063583317px" y1="83.69674840709557px" x2="36.78650812724195px" y2="83.69674840709557px" stroke="#000000" stroke-width="0.5px" />
	<line x1="36.78650812724195px" y1="83.69674840709557px" x2="45.78650812724195px" y2="83.69674840709557px" stroke="#000000" stroke-width="1.25px" />
	<line x1="13.060204586922431px" y1="79.59837420354779px" x2="34.530848826145586px" y2="79.59837420354779px" stroke="#000000" stroke-width="0.5px" />
	<line x1="32.27518952504922px" y1="75.50000000000001px" x2="41.27518952504922px" y2="75.50000000000001px" stroke="#000000" stroke-width="1.25px" />
	<line x1="115.12014702179166px" y1="112.38536783193001px" x2="97.42387676508349px" y2="112.38536783193001px" stroke="#000000" stroke-width="0.5px" />
	<line x1="117.8476030707024px" y1="108.28699362838223px" x2="99.67953606617986px" y2="108.28699362838223px" stroke="#000000" stroke-width="0.5px" />
	<line x1="99.67953606617986px" y1="108.28699362838223px" x2="90.67953606617986px" y2="108.28699362838223px" stroke="#000000" stroke-width="1.25px" />
	<line x1="120.57505911961314px" y1="104.18861942483445px" x2="101.93519536727623px" y2="104.18861942483445px" stroke="#000000" stroke-width="0.5px" />
	<line x1="123.30251516852388px" y1="100.09024522128668px" x2="104.19085466837261px" y2="100.09024522128668px" stroke="#000000" stroke-width="0.5px" />
	<line x1="104.19085466837261px" y1="100.09024522128668px" x2="95.19085466837261px" y2="100.09024522128668px" stroke="#000000" stroke-width="1.25px" />
	<line x1="126.02997121743462px" y1="95.9918710177389px" x2="106.44651396946898px" y2="95.9918710177389px" stroke="#000000" stroke-width="0.5px" />
	<line x1="128.75742726634536px" y1="91.89349681419112px" x2="108.70217327056535px" y2="91.89349681419112px" stroke="#000000" stroke-width="0.5px" />
	<line x1="108.70217327056535px" y1="91.89349681419112px" x2="99.70217327056535px" y2="91.89349681419112px" stroke="#000000" stroke-width="1.25px" />
	<line x1="131.4848833152561px" y1="87.79512261064334px" x2="110.95783257166172px" y2="87.79512261064334px" stroke="#000000" stroke-width="0.5px" />
	<line x1="134.21233936416684px" y1="83.69674840709557px" x2="113.2134918727581px" y2="83.69674840709557px" stroke="#000000" stroke-width="0.5px" />
	<line x1="113.2134918727581px" y1="83.69674840709557px" x2="104.2134918727581px" y2="83.69674840709557px" stroke="#000000" stroke-width="1.25px" />
	<line x1="136.93979541307758px" y1="79.59837420354779px" x2="115.46915117385447px" y2="79.59837420354779px" stroke="#000000" stroke-width="0.5px" />
	<line x1="117.72481047495084px" y1="75.50000000000001px" x2="108.72481047495084px" y2="75.50000000000001px" stroke="#000000" stroke-width="1.25px" />
	<path d="M 75 61.42105263157885 L 23.603801169590365 142.5 L 54.92105263157885 142.5 L 46.602339181286474 130 L 75 88.57894736842115 L 103.39766081871352 130 L 95.07894736842114 142.5 L 126.39619883040963 142.5 Z" stroke="#000000" stroke-width="1" fill="#ffffff" />
	<line x1="75px" y1="61.42105263157885px" x2="75px" y2="88.57894736842115px" stroke="#000000" stroke-width="0.5px" />
	<path d="M 23.603801169590365 142.5 L 54.92105263157885 142.5 L 35.10307017543842 136.25 Z" stroke="#000000" stroke-width="1px" fill="#000000" />
	<line x1="35.10307017543842px" y1="136.25px" x2="46.602339181286474px" y2="130px" stroke="#000000" stroke-width="1px" />
	<path d="M 126.39619883040963 142.5 L 95.07894736842114 142.5 L 114.89692982456157 136.25 Z" stroke="#000000" stroke-width="1px" fill="#000000" />
	<line x1="114.89692982456157px" y1="136.25px" x2="103.39766081871352px" y2="130px" stroke="#000000" stroke-width="1px" />
	<path d="M 62.32435394319131 44.531524536949504 L 43.79812856361829 0 L 106.20187143638171 0 L 87.67564605680869 44.531524536949504 Z M 62.32435394319131 44.531524536949504 L 67.89079451031 38.965083969830815 M 43.79812856361829 0 L 54.93100969785567 5.566440567118688 M 106.20187143638171 0 L 95.06899030214433 5.566440567118688 M 87.67564605680869 44.531524536949504 L 82.10920548969 38.965083969830815" stroke="#000000" stroke-width="1" fill="#ffffff" fill-rule="nonzero" />
	<path d="M 67.89079451031 38.965083969830815 L 54.93100969785567 5.566440567118688 L 95.06899030214433 5.566440567118688 L 82.10920548969 38.965083969830815 Z" stroke="#000000" stroke-width="1" fill="#000000" fill-rule="nonzero" />
	<path d="M 58.33518961064971 26.85897435897433 L 58.33518961064971 15.07884615384615 Q 58.33518961064971 13, 56.256343456803556 13 L 47.621136356211856 13 Q 45.542290202365706 13, 45.542290202365706 15.07884615384615 L 45.542290202365706 31.70961538461535 L 52.45845144496924 38.305954142011785 L 52.45845144496924 48.70018491124253 A 0.5197115384615374 0.5197115384615374 0 0 1 51.41902836804617 48.70018491124253 L 51.41902836804617 40.717948717948666 L 45.542290202365706 40.717948717948666 L 45.542290202365706 52.498076923076844 Q 45.542290202365706 54.576923076922995, 47.621136356211856 54.576923076922995 L 56.256343456803556 54.576923076922995 Q 58.33518961064971 54.576923076922995, 58.33518961064971 52.498076923076844 L 58.33518961064971 35.86730769230765 L 51.41902836804617 29.27096893491121 L 51.41902836804617 18.87673816568046 A 0.5197115384615374 0.5197115384615374 0 0 1 52.45845144496924 18.87673816568046 L 52.45845144496924 26.85897435897433 Z" stroke="#000000" stroke-width="1" fill="#ffffff" />
	<path d="M 81.396449704142 29.6307692307692 L 81.396449704142 15.07884615384615 Q 81.396449704142 13, 79.31760355029585 13 L 70.68239644970414 13 Q 68.603550295858 13, 68.603550295858 15.07884615384615 L 68.603550295858 48.70018491124253 A 6.136593934911231 6.136593934911231 0 0 0 79.11581271213173 53.34820683639448 L 79.92726516272188 54.576923076922995 L 81.396449704142 54.576923076922995 L 81.396449704142 33.7884615384615 L 75 33.7884615384615 L 75 39.66519970414196 L 75.51971153846153 39.66519970414196 L 75.51971153846153 48.70018491124253 A 0.5197115384615374 0.5197115384615374 0 0 1 74.48028846153846 48.70018491124253 L 74.48028846153846 18.87673816568046 A 0.5197115384615374 0.5197115384615374 0 0 1 75.51971153846153 18.87673816568046 L 75.51971153846153 29.6307692307692 Z" stroke="#000000" stroke-width="1" fill="#ffffff" />
	<path d="M 105.89607888047453 54.576923076922995 L 104.42689433905441 15.07884615384615 A 2.07884615384615 2.07884615384615 0 0 0 102.34804818520827 13 L 93.71284108461655 13 A 2.07884615384615 2.07884615384615 0 0 0 91.63399493077041 15.07884615384615 L 90.1648103893503 54.576923076922995 L 96.04154855503076 54.576923076922995 L 96.70550695355716 36.72683062130173 L 99.35538231626766 36.72683062130173 L 100.01934071479407 54.576923076922995 Z M 99.13678906972033 30.850092455621265 L 98.55015617337395 18.87673816568046 A 0.5197115384615374 0.5197115384615374 0 0 0 97.51073309645088 18.87673816568046 L 96.92410020010449 30.850092455621265 Z" stroke="#000000" stroke-width="1" fill="#ffffff" fill-rule="evenodd" />
</svg>