<?xml version="1.0"?>
<svg width="150px" height="150px" viewBox="75 -36.5 150 150" version="1.1" xmlns="http://www.w3.org/2000/svg">

	<desc>Author: Michael Vodák</desc>

    <circle cx="75" cy="75" r="63.5px" stroke="none" stroke-width="0" fill="#0000ff" />
    <path d="M 8.5 75 A 66.5 66.5 0 0 0 141.5 75 A 66.5 66.5 0 0 0 8.5 75 Z M 11.5 75 A 63.5 63.5 0 0 0 138.5 75 A 63.5 63.5 0 0 0 11.5 75 Z" stroke="none" stroke-width="0" fill="#ffd700" fill-rule="evenodd" />
    
    <path d="M 16 75 a 59 59 0 0 1 118 0 l -18 0 a 41 41 0 0 0 -82 0 Z" stroke="none" stroke-width="0" fill="#ffd700" />
    <path d="M 10 75 a 65 65 0 0 1 130 0 l -6 0 a 59 59 0 0 0 -118 0 Z" stroke="none" stroke-width="0" fill="#ffd700" />

    <path d="M 18.429460695739074 68.0161555841306 A 57 57 0 0 1 19.058546676252213 64.06593396640812 L 32.798552755769215 66.75149404483419 A 43 43 0 0 0 32.32397912134702 69.73148579153712 Z" stroke="none" stroke-width="0" fill="#ffffff" />
    <path d="M 19.47664482700528 62.10980875496876 A 57 57 0 0 1 20.517377587370582 58.24757166728206 L 33.8990743202971 62.36220318759875 A 43 43 0 0 0 33.113960132653105 65.27582063971327 Z" stroke="none" stroke-width="0" fill="#ffffff" />
    <path d="M 21.138730506269688 56.3462162411012 A 57 57 0 0 1 22.579584298747185 52.6147365950756 L 35.45477412010753 58.11287146646054 A 43 43 0 0 0 34.36781424157187 60.927847339778104 Z" stroke="none" stroke-width="0" fill="#ffffff" />
    <path d="M 23.397310721673946 50.78920779394996 A 57 57 0 0 1 25.222328599413558 47.22981040872715 L 37.44842332938216 54.05055872939066 A 43 43 0 0 0 36.0716554567014 56.73571816034821 Z" stroke="none" stroke-width="0" fill="#ffffff" />
    
    <path d="M 27.42529667938264 46.224878732571085 A 55.6 55.6 0 0 1 29.361144352778012 43.361725655054656 L 34.61284178537519 50.572199211822934 Z" stroke="none" stroke-width="0" fill="#ffffff" fill-rule="evenodd" />
    <path d="M 29.453785284042837 40.72840352350174 A 57 57 0 0 1 32.316716779477765 37.222528756986854 L 45.84109832619794 43.39686007407582 A 43 43 0 0 0 38.206614338371466 52.745859451448865 Z M 31.92094259973571 40.806509193930864 A 55 55 0 0 1 32.88634973191726 39.62429560987351 L 43.22657658463016 43.84394818871256 A 44.5 44.5 0 0 0 38.12212508114152 50.09473265614223 Z" stroke="none" stroke-width="0" fill="#ffffff" fill-rule="evenodd" />
    <path d="M 37.29686202178152 34.13640511903756 A 55.6 55.6 0 0 1 34.87839063002703 36.60544296547635 L 42.99301955805913 40.31004175572973 Z" stroke="none" stroke-width="0" fill="#ffffff" fill-rule="evenodd" />
    
    <path d="M 37.84121671858023 31.777033592724358 A 57 57 0 0 1 40.96403554208177 29.277433105529532 L 49.323746110693264 40.5075372550486 A 43 43 0 0 0 46.96793541927982 42.39320078047627 Z" stroke="none" stroke-width="0" fill="#ffffff" />
    <path d="M 42.58929424305074 28.111343031214304 A 57 57 0 0 1 45.95750493681821 25.953761810868087 L 53.09074933830145 38.00020627837417 A 43 43 0 0 0 50.54981846405582 39.627855269161664 Z" stroke="none" stroke-width="0" fill="#ffffff" />
    <path d="M 47.696308886497 24.964927784818606 A 57 57 0 0 1 51.272609706730364 23.173260281290567 L 57.100389778761496 35.902634949043765 A 43 43 0 0 0 54.40247863367318 37.25424376749474 Z" stroke="none" stroke-width="0" fill="#ffffff" />
    
    <path d="M 98.72739029326962 23.17326028129056 A 57 57 0 0 1 102.30369111350298 24.96492778481859 L 95.59752136632681 37.25424376749473 A 43 43 0 0 0 92.89961022123849 35.90263494904376 Z" stroke="none" stroke-width="0" fill="#ffffff" />
    <path d="M 104.04249506318177 25.953761810868087 A 57 57 0 0 1 107.41070575694925 28.11134303121429 L 99.45018153594417 39.62785526916166 A 43 43 0 0 0 96.90925066169853 38.000206278374165 Z" stroke="none" stroke-width="0" fill="#ffffff" />
    <path d="M 109.03596445791821 29.277433105529518 A 57 57 0 0 1 112.15878328141976 31.777033592724343 L 103.03206458072017 42.39320078047626 A 43 43 0 0 0 100.67625388930672 40.50753725504858 Z" stroke="none" stroke-width="0" fill="#ffffff" />
    
    <path d="M 112.7031379782185 34.13640511903758 A 55.6 55.6 0 0 1 115.12160936997298 36.60544296547636 L 107.00698044194088 40.31004175572974 Z" stroke="none" stroke-width="0" fill="#ffffff" fill-rule="evenodd" />
    <path d="M 117.68328322052224 37.22252875698686 A 57 57 0 0 1 120.54621471595716 40.72840352350175 L 111.79338566162852 52.74585945144885 A 43 43 0 0 0 104.15890167380208 43.39686007407583 Z M 117.11365026808275 39.62429560987351 A 55 55 0 0 1 118.0790574002643 40.80650919393087 L 111.87787491885848 50.09473265614223 A 44.5 44.5 0 0 0 106.77342341536985 43.84394818871256 Z" stroke="none" stroke-width="0" fill="#ffffff" fill-rule="evenodd" />
    <path d="M 122.57470332061734 46.22487873257107 A 55.6 55.6 0 0 1 120.63885564722199 43.361725655054656 L 115.3871582146248 50.57219921182292 Z" stroke="none" stroke-width="0" fill="#ffffff" fill-rule="evenodd" />
    
    <path d="M 124.77767140058643 47.22981040872713 A 57 57 0 0 1 126.60268927832604 50.78920779394994 L 113.92834454329859 56.7357181603482 A 43 43 0 0 0 112.55157667061783 54.050558729390644 Z" stroke="none" stroke-width="0" fill="#ffffff" />
    <path d="M 127.42041570125281 52.614736595075584 A 57 57 0 0 1 128.8612694937303 56.34621624110119 L 115.63218575842813 60.92784733977809 A 43 43 0 0 0 114.54522587989247 58.112871466460525 Z" stroke="none" stroke-width="0" fill="#ffffff" />
    <path d="M 129.4826224126294 58.247571667282045 A 57 57 0 0 1 130.5233551729947 62.10980875496874 L 116.88603986734688 65.27582063971326 A 43 43 0 0 0 116.1009256797029 62.36220318759874 Z" stroke="none" stroke-width="0" fill="#ffffff" />
    <path d="M 130.9414533237478 64.0659339664081 A 57 57 0 0 1 131.57053930426093 68.01615558413057 L 117.67602087865296 69.7314857915371 A 43 43 0 0 0 117.20144724423079 66.75149404483417 Z" stroke="none" stroke-width="0" fill="#ffffff" />
    
    <path d="M 46.2 75 L 44.41018613607189 71.01914611890787 Q 43.21697689345315 68.36524353151311, 40.322025212290676 68.07164175395395 A 131.25 131.25 0 0 0 0 75 Z" stroke="#ff0000" stroke-width="0.5" fill="#ffffff" />
    <path d="M 103.8 75 L 105.5898138639281 71.01914611890787 Q 106.78302310654683 68.36524353151311, 109.6779747877093 68.07164175395395 A 131.25 131.25 0 0 1 150 75 Z" stroke="#ff0000" stroke-width="0.5" fill="#ffffff" />
    <path d="M 10 75 L 59.91228070175428 150 L 90.08771929824571 150 L 140 75 L 108.8 75 L 84.93581514762522 128.07805174789502 L 65.06418485237478 128.07805174789502 L 41.2 75 Z M 33.120000000000004 75 L 60.61699742287074 136.15805174789503 M 60.61699742287074 136.15805174789503 L 59.91228070175428 150 M 65.06418485237478 128.07805174789502 L 60.61699742287074 136.15805174789503 M 60.61699742287074 136.15805174789503 L 89.38300257712926 136.15805174789503 M 89.38300257712926 136.15805174789503 L 90.08771929824571 150 M 84.93581514762522 128.07805174789502 L 89.38300257712926 136.15805174789503 M 89.38300257712926 136.15805174789503 L 116.88 75 M 41.790959415318106 122.77024657310551 L 54.5977663671373 122.77024657310551 L 62.6777663671373 122.77024657310551 M 38.258630591393874 117.462441398316 L 52.211347881899826 117.462441398316 L 60.291347881899824 117.462441398316 M 34.72630176746964 112.1546362235265 L 49.82492939666234 112.1546362235265 L 57.90492939666235 112.1546362235265 M 31.193972943545407 106.84683104873699 L 47.43851091142487 106.84683104873699 L 55.51851091142487 106.84683104873699 M 27.661644119621172 101.53902587394748 L 45.052092426187386 101.53902587394748 L 53.13209242618739 101.53902587394748 M 24.129315295696937 96.23122069915797 L 42.665673940949915 96.23122069915797 L 50.745673940949914 96.23122069915797 M 20.596986471772702 90.92341552436846 L 40.27925545571243 90.92341552436846 L 48.359255455712436 90.92341552436846 M 17.064657647848467 85.61561034957896 L 37.89283697047496 85.61561034957896 L 45.97283697047496 85.61561034957896 M 13.532328823924233 80.30780517478945 L 35.506418485237475 80.30780517478945 L 43.58641848523748 80.30780517478945 M 108.20904058468188 122.77024657310551 L 95.40223363286269 122.77024657310551 L 87.32223363286269 122.77024657310551 M 111.74136940860612 117.462441398316 L 97.78865211810016 117.462441398316 L 89.70865211810016 117.462441398316 M 115.27369823253035 112.1546362235265 L 100.17507060333763 112.1546362235265 L 92.09507060333763 112.1546362235265 M 118.80602705645458 106.84683104873699 L 102.5614890885751 106.84683104873699 L 94.4814890885751 106.84683104873699 M 122.33835588037881 101.53902587394748 L 104.94790757381257 101.53902587394748 L 96.86790757381257 101.53902587394748 M 125.87068470430304 96.23122069915797 L 107.33432605905004 96.23122069915797 L 99.25432605905004 96.23122069915797 M 129.4030135282273 90.92341552436846 L 109.72074454428751 90.92341552436846 L 101.64074454428751 90.92341552436846 M 132.93534235215154 85.61561034957896 L 112.10716302952498 85.61561034957896 L 104.02716302952498 85.61561034957896 M 136.46767117607578 80.30780517478945 L 114.49358151476245 80.30780517478945 L 106.41358151476245 80.30780517478945" stroke="#ff0000" stroke-width="0.5" fill="#ffffff" />
    <path d="M 75 61.42105263157885 L 27.881149334192642 148.66841362648827 L 59.91228070175428 150 L 49.92982456140342 135 L 75 88.57894736842115 L 100.07017543859658 135 L 90.08771929824571 150 L 122.11885066580736 148.66841362648827 Z M 75 61.42105263157885 L 75 75 M 75 75 L 75 88.57894736842115 M 75 75 L 35.20827337688829 148.9730141234337 M 35.20827337688829 148.9730141234337 L 49.92982456140342 135 M 75 75 L 114.79172662311171 148.9730141234337 M 114.79172662311171 148.9730141234337 L 100.07017543859658 135" stroke="#00cc00" stroke-width="0.5" fill="#ffffff" />
    
    <path d="M 62.32435394319131 44.531524536949504 L 43.79812856361829 0 L 106.20187143638171 0 L 87.67564605680869 44.531524536949504 Z M 67.89079451031 38.965083969830815 L 54.93100969785567 5.566440567118688 L 95.06899030214433 5.566440567118688 L 82.10920548969 38.965083969830815 L 67.89079451031 38.965083969830815 M 62.32435394319131 44.531524536949504 L 67.89079451031 38.965083969830815 M 43.79812856361829 0 L 54.93100969785567 5.566440567118688 M 106.20187143638171 0 L 95.06899030214433 5.566440567118688 M 87.67564605680869 44.531524536949504 L 82.10920548969 38.965083969830815" stroke="#ff00ff" stroke-width="0.5" fill="#ffffff" fill-rule="nonzero" />
    
    <path d="M 58.4207412300829 29.140350877192947 L 58.4207412300829 15.42105263157894 Q 58.4207412300829 12.999999999999996, 55.99968859850396 12.999999999999996 L 45.94300843656067 12.999999999999996 Q 43.52195580498172 12.999999999999996, 43.52195580498172 15.42105263157894 L 43.52195580498172 34.789473684210485 L 51.576611675427046 42.471659919028276 L 51.576611675427046 54.57692307692299 A 0.6052631578947355 0.6052631578947355 0 0 1 50.36608535963758 54.57692307692299 L 50.36608535963758 45.280701754385895 L 43.52195580498172 45.280701754385895 L 43.52195580498172 58.9999999999999 Q 43.52195580498172 61.421052631578846, 45.94300843656067 61.421052631578846 L 55.99968859850396 61.421052631578846 Q 58.4207412300829 61.421052631578846, 58.4207412300829 58.9999999999999 L 58.4207412300829 39.631578947368354 L 50.36608535963758 31.94939271255057 L 50.36608535963758 19.844129554655854 A 0.6052631578947355 0.6052631578947355 0 0 1 51.576611675427046 19.844129554655854 L 51.576611675427046 29.140350877192947 Z" stroke="#cc9900" stroke-width="0.5" fill="#ffffff" />
    <path d="M 82.44939271255059 32.36842105263154 L 82.44939271255059 15.42105263157894 Q 82.44939271255059 12.999999999999996, 80.02834008097164 12.999999999999996 L 69.97165991902835 12.999999999999996 Q 67.55060728744941 12.999999999999996, 67.55060728744941 15.42105263157894 L 67.55060728744941 54.57692307692299 A 6.844129554655857 6.844129554655857 0 0 0 79.02732793522267 58.9999999999999 L 80.73836032388664 61.421052631578846 L 82.4493927125506 61.421052631578846 L 82.44939271255059 37.21052631578942 L 75.60526315789474 37.21052631578942 L 75.60526315789474 54.57692307692299 A 0.6052631578947355 0.6052631578947355 0 0 1 74.39473684210526 54.57692307692299 L 74.39473684210526 19.844129554655854 A 0.6052631578947355 0.6052631578947355 0 0 1 75.60526315789474 19.844129554655854 L 75.60526315789474 32.36842105263154 Z" stroke="#cc9900" stroke-width="0.5" fill="#ffffff" />
    <path d="M 106.47804419501828 32.36842105263154 L 106.47804419501828 15.42105263157894 Q 106.47804419501828 12.999999999999996, 104.05699156343934 12.999999999999996 L 94.00031140149605 12.999999999999996 Q 91.5792587699171 12.999999999999996, 91.5792587699171 15.42105263157894 L 91.5792587699171 58.9999999999999 Q 91.5792587699171 61.421052631578846, 94.00031140149605 61.421052631578846 L 104.05699156343934 61.421052631578846 Q 106.47804419501828 61.421052631578846, 106.47804419501828 58.9999999999999 L 106.47804419501828 42.052631578947306 L 99.63391464036243 42.052631578947306 L 99.63391464036243 54.57692307692299 A 0.6052631578947355 0.6052631578947355 0 0 1 98.42338832457295 54.57692307692299 L 98.42338832457295 19.844129554655854 A 0.6052631578947355 0.6052631578947355 0 0 1 99.63391464036243 19.844129554655854 L 99.63391464036243 32.36842105263154 Z" stroke="#cc9900" stroke-width="0.5" fill="#ffffff" />
</svg>